<svg xmlns="http://www.w3.org/2000/svg" viewBox="0 0 100 100" width="500" height="500" class="illustration"><defs><style>.cls-1{fill:#f0457d;}.cls-2{fill:#0064f4;}.cls-3{fill:#ffd44d;}.cls-4{fill:none;stroke:#231f20;stroke-miterlimit:10;stroke-width:1.5px;}</style></defs><g id="Layer_1" data-name="Layer 1"><path class="cls-1" d="M71.56,57.46v9.26c-4.21,2.07-42.4.38-43.12,0V57.46A11.8,11.8,0,0,1,40.26,45.63H59.73a11.28,11.28,0,0,1,2.09.18,11.87,11.87,0,0,1,8,5.48s0,0,0,.05A11.69,11.69,0,0,1,71.56,57.46Z"></path><path class="cls-2" d="M57.66,45.64a7.66,7.66,0,0,1-15.32,0Z"></path><circle class="cls-1" cx="50" cy="32.7" r="10.12"></circle><rect class="cls-1" x="28.44" y="62.06" width="43.12" height="16.68"></rect><path class="cls-3" d="M29.85,58.11l.88,2.69A1.7,1.7,0,0,0,32.35,62h2.83a1.7,1.7,0,0,1,1,3.08l-2.29,1.67a1.69,1.69,0,0,0-.62,1.9l.88,2.7a1.71,1.71,0,0,1-2.63,1.9l-2.29-1.66a1.68,1.68,0,0,0-2,0l-2.29,1.66a1.71,1.71,0,0,1-2.63-1.9l.88-2.7a1.69,1.69,0,0,0-.62-1.9l-2.29-1.67a1.7,1.7,0,0,1,1-3.08h2.83a1.7,1.7,0,0,0,1.62-1.18l.88-2.69A1.7,1.7,0,0,1,29.85,58.11Z"></path><path class="cls-3" d="M73.39,58.11l.88,2.69A1.7,1.7,0,0,0,75.89,62h2.83a1.7,1.7,0,0,1,1,3.08l-2.29,1.67a1.69,1.69,0,0,0-.62,1.9l.88,2.7a1.71,1.71,0,0,1-2.63,1.9l-2.29-1.66a1.68,1.68,0,0,0-2,0l-2.29,1.66a1.71,1.71,0,0,1-2.63-1.9l.88-2.7a1.69,1.69,0,0,0-.62-1.9l-2.29-1.67a1.7,1.7,0,0,1,1-3.08h2.83a1.7,1.7,0,0,0,1.62-1.18l.88-2.69A1.7,1.7,0,0,1,73.39,58.11Z"></path><path class="cls-3" d="M52.3,50.61l1.24,3.82a2.41,2.41,0,0,0,2.29,1.66h4a2.42,2.42,0,0,1,1.42,4.37L58,62.82a2.42,2.42,0,0,0-.88,2.7l1.24,3.82A2.41,2.41,0,0,1,54.67,72l-3.25-2.36a2.43,2.43,0,0,0-2.84,0L45.33,72a2.41,2.41,0,0,1-3.71-2.7l1.24-3.82a2.42,2.42,0,0,0-.88-2.7l-3.25-2.36a2.42,2.42,0,0,1,1.42-4.37h4a2.41,2.41,0,0,0,2.29-1.66l1.24-3.82A2.42,2.42,0,0,1,52.3,50.61Z"></path></g><g id="Layer_2" data-name="Layer 2"><path class="cls-4" d="M28.89,54.22a11.53,11.53,0,0,1,1.29-2.94,11.77,11.77,0,0,1,10.08-5.65H59.73a11.28,11.28,0,0,1,2.09.18,11.87,11.87,0,0,1,8,5.48s0,0,0,.05A11.32,11.32,0,0,1,71.05,54"></path><path class="cls-4" d="M44.72,51.19a7.68,7.68,0,0,1-2.38-5.55H57.66a7.66,7.66,0,0,1-1.3,4.28"></path><circle class="cls-4" cx="50" cy="32.7" r="10.12"></circle><polyline class="cls-4" points="28.44 74.85 28.44 78.74 71.56 78.74 71.56 71.5"></polyline><path class="cls-4" d="M29.85,58.11l.88,2.69A1.7,1.7,0,0,0,32.35,62h2.83a1.7,1.7,0,0,1,1,3.08l-2.29,1.67a1.69,1.69,0,0,0-.62,1.9l.88,2.7a1.71,1.71,0,0,1-2.63,1.9l-2.29-1.66a1.68,1.68,0,0,0-2,0l-2.29,1.66a1.71,1.71,0,0,1-2.63-1.9l.88-2.7a1.69,1.69,0,0,0-.62-1.9l-2.29-1.67a1.7,1.7,0,0,1,1-3.08h2.83a1.7,1.7,0,0,0,1.62-1.18l.88-2.69A1.7,1.7,0,0,1,29.85,58.11Z"></path><path class="cls-4" d="M73.39,58.11l.88,2.69A1.7,1.7,0,0,0,75.89,62h2.83a1.7,1.7,0,0,1,1,3.08l-2.29,1.67a1.69,1.69,0,0,0-.62,1.9l.88,2.7a1.71,1.71,0,0,1-2.63,1.9l-2.29-1.66a1.68,1.68,0,0,0-2,0l-2.29,1.66a1.71,1.71,0,0,1-2.63-1.9l.88-2.7a1.69,1.69,0,0,0-.62-1.9l-2.29-1.67a1.7,1.7,0,0,1,1-3.08h2.83a1.7,1.7,0,0,0,1.62-1.18l.88-2.69A1.7,1.7,0,0,1,73.39,58.11Z"></path><path class="cls-4" d="M52.3,50.61l1.24,3.82a2.41,2.41,0,0,0,2.29,1.66h4a2.42,2.42,0,0,1,1.42,4.37L58,62.82a2.42,2.42,0,0,0-.88,2.7l1.24,3.82A2.41,2.41,0,0,1,54.67,72l-3.25-2.36a2.43,2.43,0,0,0-2.84,0L45.33,72a2.41,2.41,0,0,1-3.71-2.7l1.24-3.82a2.42,2.42,0,0,0-.88-2.7l-3.25-2.36a2.42,2.42,0,0,1,1.42-4.37h4a2.41,2.41,0,0,0,2.29-1.66l1.24-3.82A2.42,2.42,0,0,1,52.3,50.61Z"></path></g></svg>