<svg width="278" height="240" viewBox="0 0 278 240" fill="none" xmlns="http://www.w3.org/2000/svg">
<path d="M233.446 174.912C233.446 174.912 266.87 87.7231 249.554 74.4266C232.238 61.1301 159.615 66.4994 155.636 71.2496C151.657 75.9998 128.231 180.951 128.231 180.951L233.446 174.912Z" fill="#231F20"/>
<path d="M128.18 181.479C128.107 181.478 128.036 181.462 127.969 181.433C127.903 181.403 127.843 181.36 127.794 181.306C127.744 181.247 127.708 181.176 127.69 181.1C127.673 181.024 127.674 180.945 127.693 180.87C128.647 176.576 151.231 75.7359 155.25 70.9451C157.453 68.3163 176.839 65.8701 197.586 65.5961C209.766 65.4337 239.292 65.931 249.868 74.0409C257.227 79.6843 256.76 98.4009 248.488 129.785C242.398 152.998 234.004 174.871 233.923 175.084C233.889 175.176 233.828 175.256 233.749 175.314C233.669 175.372 233.574 175.405 233.476 175.409L128.21 181.499L128.18 181.479ZM201.422 66.5806H197.606C176.291 66.8648 157.767 69.4937 155.991 71.5744C152.946 75.2386 136.95 143.974 128.789 180.413L233.06 174.404C235.202 168.73 265.54 87.3374 249.219 74.8224C242.347 69.5546 225.021 66.5806 201.422 66.5806Z" fill="#231F20"/>
<path d="M97.7301 99.5784L82.6675 150.136C82.6675 150.136 113.737 154.145 113.737 152.998C113.737 151.851 119.827 97.3657 119.827 97.3657L97.7301 99.5784Z" fill="white"/>
<path d="M112.173 153.658C106.926 153.658 92.0358 151.851 82.6064 150.613C82.5336 150.602 82.4639 150.577 82.4018 150.537C82.3398 150.498 82.2868 150.446 82.2465 150.384C82.2062 150.323 82.1794 150.253 82.1679 150.181C82.1565 150.108 82.1606 150.034 82.1801 149.963L97.2427 99.4059C97.2706 99.3084 97.3271 99.2214 97.4049 99.1562C97.4827 99.0911 97.5782 99.0508 97.6791 99.0405L119.786 96.8278C119.861 96.8209 119.936 96.831 120.006 96.8574C120.077 96.8837 120.14 96.9257 120.192 96.9801C120.246 97.0314 120.288 97.0951 120.312 97.1657C120.337 97.2364 120.345 97.3119 120.334 97.3861C118.233 116.164 114.244 151.942 114.244 152.967C114.235 153.134 114.162 153.29 114.041 153.404C113.446 153.629 112.807 153.716 112.173 153.658ZM83.2865 149.709C94.0861 151.09 110.854 153.008 113.209 152.673C113.594 148.288 118.537 104.034 119.217 97.9341L98.0852 100.056L83.2865 149.709Z" fill="#231F20"/>
<path d="M69.1781 87.0227C69.3101 87.1648 74.6591 85.7336 77.4199 89.0527C80.1807 92.3717 76.5978 95.3355 67.8789 93.6202C59.1601 91.9048 69.1781 87.0227 69.1781 87.0227Z" fill="white"/>
<path d="M72.4768 94.6252C70.898 94.6094 69.3244 94.4428 67.7773 94.1278C65.2601 93.6305 63.9609 92.8185 63.8087 91.6309C63.5143 89.337 68.0412 87.0127 68.9547 86.5559C69.0601 86.5203 69.1742 86.5203 69.2795 86.5559H69.6145C71.0355 86.3834 75.3594 85.8353 77.8157 88.7788C78.9119 90.078 79.1453 91.4076 78.4957 92.5241C77.6533 93.8538 75.471 94.6252 72.4768 94.6252ZM69.2897 87.5202C67.3104 88.5352 64.7019 90.3216 64.844 91.4482C64.844 91.8238 65.3718 92.5343 67.9803 93.0519C73.8775 94.209 76.8413 93.1331 77.5924 91.8644C77.7717 91.4337 77.8124 90.9579 77.7087 90.5031C77.605 90.0483 77.3621 89.6372 77.0138 89.3269C74.9229 86.83 71.1573 87.2969 69.7464 87.4796C69.5536 87.5202 69.4115 87.5202 69.2897 87.5202Z" fill="#231F20"/>
<path d="M55.7698 76.416C55.7698 76.416 54.6736 75.1574 55.3638 74.2743C55.5191 74.095 55.7149 73.9553 55.9349 73.8668C56.1549 73.7783 56.3929 73.7435 56.6291 73.7654C56.8652 73.7872 57.0928 73.865 57.2929 73.9924C57.4929 74.1197 57.6598 74.2929 57.7796 74.4976C57.7796 74.4976 56.054 75.1168 55.7698 76.416Z" fill="white"/>
<path d="M55.7699 76.9336C55.6955 76.9344 55.6218 76.9194 55.5536 76.8897C55.4853 76.8599 55.4242 76.8161 55.3741 76.7611C54.8666 76.1724 54.1967 74.9138 54.9579 73.9597C55.1281 73.736 55.3476 73.5546 55.5994 73.4296C55.8511 73.3046 56.1283 73.2394 56.4094 73.239C56.7553 73.2449 57.0951 73.3315 57.4018 73.4918C57.7084 73.6522 57.9733 73.8819 58.1755 74.1627C58.2311 74.2273 58.2696 74.3048 58.2873 74.3882C58.305 74.4716 58.3015 74.5581 58.277 74.6397C58.2557 74.7208 58.215 74.7955 58.1584 74.8574C58.1018 74.9193 58.031 74.9665 57.9522 74.995C57.5462 75.1371 56.4601 75.7055 56.2774 76.5276C56.2579 76.622 56.2124 76.7091 56.146 76.779C56.0797 76.849 55.9951 76.899 55.9019 76.9235L55.7699 76.9336ZM56.4297 74.2845C56.3064 74.2863 56.1852 74.3155 56.0746 74.3699C55.964 74.4243 55.8669 74.5026 55.7902 74.5991C55.7324 74.7104 55.7022 74.834 55.7022 74.9594C55.7022 75.0849 55.7324 75.2085 55.7902 75.3198C56.096 74.9446 56.4674 74.6281 56.8864 74.386C56.7461 74.3245 56.5915 74.3034 56.4398 74.3251L56.4297 74.2845Z" fill="#231F20"/>
<path d="M58.1653 74.447C57.5615 74.4961 56.991 74.7438 56.5429 75.1515C56.0948 75.5592 55.7944 76.1038 55.6887 76.7003L77.4605 105.029C77.5948 103.671 78.181 102.398 79.1252 101.414C80.0693 100.429 81.3167 99.7899 82.6674 99.5987L58.1653 74.447Z" fill="white"/>
<path d="M77.4504 105.547C77.3717 105.546 77.2943 105.527 77.2239 105.492C77.1536 105.457 77.0922 105.406 77.0444 105.344L55.2726 77.0149C55.2235 76.9509 55.1897 76.8764 55.1738 76.7972C55.158 76.718 55.1605 76.6362 55.1813 76.5582C55.3246 75.8539 55.6933 75.2154 56.2317 74.7393C56.7701 74.2632 57.4488 73.9753 58.1654 73.9192C58.2356 73.9199 58.305 73.9346 58.3695 73.9625C58.434 73.9904 58.4923 74.0309 58.5409 74.0816L83.043 99.2333C83.1111 99.3008 83.1587 99.3862 83.1802 99.4796C83.2018 99.573 83.1964 99.6706 83.1648 99.7611C83.1363 99.8519 83.0834 99.9331 83.0118 99.9958C82.9401 100.058 82.8526 100.1 82.7588 100.116C81.5216 100.286 80.3773 100.866 79.5102 101.765C78.643 102.663 78.1034 103.827 77.9782 105.07C77.9697 105.175 77.9292 105.275 77.862 105.357C77.7949 105.438 77.7044 105.498 77.6026 105.526L77.4504 105.547ZM56.2673 76.5988L77.1865 103.811C77.481 102.74 78.0453 101.762 78.8254 100.972C79.6055 100.181 80.5754 99.6033 81.6423 99.2942L57.9725 74.9951C57.5677 75.0784 57.194 75.2725 56.8929 75.5556C56.5919 75.8387 56.3753 76.1999 56.2673 76.5988Z" fill="#231F20"/>
<path d="M77.4603 105.029L84.8902 108.886L85.8138 108.023L82.6673 99.5986C82.6673 99.5986 76.8818 99.02 77.4603 105.029Z" fill="white"/>
<path d="M84.8902 109.404C84.8051 109.405 84.7211 109.384 84.6466 109.343L77.2168 105.486C77.1379 105.446 77.0704 105.387 77.0206 105.314C76.9709 105.242 76.9406 105.157 76.9326 105.069C76.7913 104.262 76.8358 103.433 77.0626 102.645C77.2895 101.857 77.6928 101.131 78.2419 100.522C78.8545 99.9955 79.5657 99.5959 80.3342 99.3467C81.1026 99.0976 81.913 99.0038 82.7181 99.0708C82.8176 99.0802 82.9123 99.1176 82.9914 99.1787C83.0704 99.2397 83.1305 99.322 83.1647 99.4159L86.301 107.84C86.3387 107.937 86.3463 108.044 86.3228 108.145C86.2992 108.246 86.2457 108.338 86.1691 108.409L85.2454 109.272C85.1469 109.357 85.0207 109.404 84.8902 109.404ZM77.9577 104.694L84.7988 108.246L85.2048 107.881L82.3019 100.106C81.088 100.072 79.9035 100.483 78.9727 101.263C78.5651 101.727 78.2632 102.275 78.0879 102.867C77.9127 103.459 77.8682 104.083 77.9577 104.694Z" fill="#231F20"/>
<path d="M84.8901 108.886L86.3111 110.408L86.981 109.647L85.8138 108.023L84.8901 108.886Z" fill="white"/>
<path d="M86.3111 110.936C86.2397 110.937 86.169 110.921 86.1041 110.892C86.0392 110.862 85.9817 110.818 85.9356 110.764L84.5044 109.241C84.4121 109.138 84.3615 109.004 84.3623 108.866C84.3702 108.726 84.432 108.595 84.5349 108.5L85.4585 107.637C85.5135 107.588 85.5783 107.55 85.6487 107.527C85.7192 107.504 85.7937 107.496 85.8674 107.504C85.9411 107.511 86.0124 107.534 86.0766 107.571C86.1409 107.608 86.1965 107.659 86.2401 107.719L87.4073 109.343C87.4815 109.435 87.5219 109.549 87.5219 109.667C87.5219 109.786 87.4815 109.9 87.4073 109.992L86.7374 110.753C86.6907 110.811 86.6319 110.857 86.5652 110.888C86.4984 110.92 86.4255 110.936 86.3517 110.936H86.3111ZM85.6311 108.906L86.301 109.627L85.7224 108.825L85.6311 108.906Z" fill="#231F20"/>
<path d="M70.5583 107.252C71.756 104.826 74.7604 99.6799 75.4506 97.4469C77.3588 91.3569 66.1837 85.6526 62.5703 85.6526C58.9569 85.6526 51.4053 98.2792 51.4053 105.029C51.4053 111.779 76.425 163.462 76.425 163.462L100.43 152.48L70.5583 107.252Z" fill="white"/>
<path d="M76.4555 163.99C76.3578 163.99 76.2622 163.963 76.1796 163.911C76.0969 163.858 76.0307 163.784 75.9886 163.696C74.9736 161.585 50.908 111.809 50.908 105.029C50.908 98.2487 58.5408 85.1248 62.5703 85.1248C65.3514 85.1248 71.817 88.0886 74.7503 92.0268C75.3997 92.7839 75.8531 93.6889 76.0708 94.6623C76.2885 95.6357 76.2637 96.6477 75.9988 97.6093C75.031 100.003 73.8983 102.326 72.6087 104.562C72.0707 105.577 71.5937 106.491 71.208 107.211L100.937 152.176C100.979 152.239 101.007 152.311 101.019 152.386C101.031 152.462 101.027 152.538 101.008 152.612C100.987 152.683 100.95 152.749 100.901 152.805C100.852 152.861 100.792 152.906 100.724 152.937L76.7093 163.939C76.633 163.985 76.5434 164.003 76.4555 163.99ZM62.5703 86.1702C59.3934 86.1702 51.9636 98.3502 51.9636 105.029C51.9636 111.241 74.2225 157.616 76.6991 162.782L99.6889 152.247L70.1219 107.587C70.0775 107.506 70.0542 107.415 70.0542 107.323C70.0542 107.231 70.0775 107.14 70.1219 107.059C70.5076 106.288 71.0659 105.242 71.6749 104.105C72.9301 101.926 74.0356 99.6643 74.9838 97.3352C75.1979 96.5307 75.2109 95.6859 75.0215 94.8752C74.8321 94.0645 74.4461 93.3128 73.8977 92.6865C71.0659 88.8397 64.9048 86.1702 62.5703 86.1702Z" fill="#231F20"/>
<path d="M198.276 117.483L227.863 109.942C226.848 108.51 214.912 70.6204 202.326 64.4188C191.313 57.1108 165.197 52.2388 142.126 53.8932C142.126 53.8932 136.036 53.6699 125.358 57.9025C99.3539 68.2352 94.3398 104.217 94.3398 104.217L114.64 111.231C114.64 111.231 110.763 157.768 107.098 182.098C107.098 182.098 151.982 190.878 217.327 180.068C217.378 180.048 198.398 124.365 198.276 117.483Z" fill="#F0A500"/>
<path d="M195.84 65.4643C191.922 69.5243 188.867 74.3963 184.543 78.2228C175.225 86.4646 163.035 92.9911 150.256 92.1994C135.194 91.2656 122.171 80.9735 118.903 65.9819C116.873 56.583 118.984 47.854 126.252 41.2159C131.276 36.6281 137.711 33.8267 144.288 32.0809C161.756 27.4018 181.356 29.8885 196.266 40.14C198.702 41.6396 200.759 43.6822 202.275 46.1082C206 52.858 201.717 59.8006 196.885 64.4391C196.561 64.7538 196.215 65.109 195.84 65.4643Z" fill="#F0A500"/>
<path d="M144.45 76.1014C144.298 76.1014 141.497 79.5118 141.355 79.5626C142.948 85.5714 144.633 93.397 151.434 94.1684C165.228 95.7417 167.318 77.3499 169.917 68.6716C160.366 71.3512 153.626 72.4271 144.45 76.1014Z" fill="#231F20"/>
<path d="M153.047 94.7774C152.491 94.773 151.935 94.7391 151.383 94.6759C144.592 93.9045 142.674 86.5559 141.121 80.6791L140.857 79.6641C140.833 79.5644 140.839 79.4596 140.875 79.3636C140.911 79.2675 140.976 79.1847 141.06 79.1261C141.223 78.9739 141.964 78.1111 142.502 77.4818C144.075 75.6751 144.095 75.665 144.257 75.5939C149.876 73.4219 155.642 71.6547 161.512 70.3058C164.101 69.6562 166.77 68.9863 169.734 68.154C169.821 68.1296 169.913 68.129 170.001 68.1522C170.088 68.1754 170.168 68.2216 170.231 68.2859C170.292 68.3517 170.335 68.4318 170.357 68.5188C170.378 68.6058 170.377 68.6968 170.353 68.7833C169.967 70.0723 169.592 71.5948 169.186 73.2087C167.085 81.8971 163.867 94.7673 153.047 94.7774ZM141.882 79.725L142.065 80.4253C143.618 86.3123 145.364 92.9809 151.464 93.6203C162.761 94.9094 165.918 82.2117 168.232 72.9346C168.546 71.6659 168.851 70.4479 169.155 69.3517C166.527 70.0723 164.08 70.6813 161.776 71.27C155.959 72.5905 150.247 74.3342 144.684 76.4871C144.481 76.6901 143.77 77.5021 143.242 78.1213C142.532 79.0348 142.136 79.4814 141.913 79.725H141.882Z" fill="#231F20"/>
<path d="M157.808 5.30505C155.778 5.22385 154.479 6.1069 152.733 6.7362C149.333 7.9339 147.749 5.0919 144.826 3.57955C140.224 1.18685 134.935 0.460785 129.858 1.52464C124.781 2.58849 120.229 5.37669 116.974 9.4158C114.949 11.8145 113.637 14.7332 113.188 17.8403C112.762 21.3522 113.747 24.9453 113.138 28.4166C112.765 30.4102 111.892 32.2763 110.599 33.8389C109.306 35.4016 107.637 36.6094 105.749 37.3486C108.998 37.5994 112.266 37.2904 115.411 36.4351C114.507 37.5095 113.384 38.3779 112.116 38.9819C110.849 39.5859 109.467 39.9115 108.063 39.9368C111.3 42.4257 115.277 43.7586 119.36 43.7228L112.204 45.3975C118.294 49.3053 125.714 50.4725 132.89 50.1477C147.181 49.4068 171.115 43.5604 170.698 25.0468C170.465 17.9519 166.567 5.71105 157.808 5.30505Z" fill="white"/>
<path d="M130.433 50.7467C124.962 50.7467 117.959 49.7317 111.889 45.8544C111.806 45.7989 111.74 45.7205 111.701 45.6286C111.661 45.5367 111.649 45.4354 111.666 45.3367C111.687 45.2402 111.734 45.1512 111.802 45.0796C111.87 45.008 111.956 44.9565 112.052 44.9307L116.03 44.0071C113.002 43.4911 110.145 42.2438 107.707 40.3734C107.622 40.3095 107.559 40.2204 107.527 40.1187C107.496 40.017 107.497 39.9079 107.53 39.8069C107.564 39.7058 107.629 39.6179 107.715 39.5557C107.802 39.4934 107.905 39.4599 108.012 39.4599C110.096 39.4257 112.108 38.693 113.726 37.3791C111.077 37.9284 108.364 38.0993 105.667 37.8866C105.553 37.8762 105.446 37.8274 105.363 37.7481C105.28 37.6689 105.226 37.5638 105.21 37.4502C105.192 37.3352 105.214 37.2174 105.274 37.1173C105.333 37.0171 105.426 36.941 105.535 36.9021C107.35 36.204 108.955 35.053 110.199 33.5588C111.443 32.0646 112.283 30.2769 112.64 28.3659C112.884 26.5415 112.905 24.694 112.701 22.8646C112.543 21.1767 112.543 19.4776 112.701 17.7896C113.163 14.5861 114.513 11.5762 116.599 9.10122C119.927 4.97093 124.583 2.1205 129.775 1.03435C134.967 -0.0517933 140.375 0.693359 145.08 3.14317C145.944 3.61538 146.766 4.16217 147.536 4.77732C149.18 6.02577 150.479 7.01032 152.611 6.26937C153.068 6.10697 153.494 5.92427 153.91 5.75172C155.149 5.12259 156.52 4.79894 157.909 4.80777C166.699 5.19347 171.104 17.1096 171.246 25.0469C171.429 33.4612 166.831 40.0892 157.574 44.7277C148.318 49.3663 137.274 50.4422 132.961 50.6655C132.108 50.7264 131.286 50.7467 130.433 50.7467ZM113.483 45.6717C120.04 49.4779 127.561 49.9854 132.829 49.7317C137.051 49.5084 147.851 48.5035 157.036 43.8954C165.918 39.4497 170.323 33.1466 170.15 25.1484C169.978 17.5968 165.928 6.25922 157.787 5.86337C156.549 5.87202 155.33 6.16732 154.225 6.72612C153.788 6.90882 153.342 7.10167 152.865 7.26407C150.236 8.18772 148.592 6.93927 146.856 5.61977C146.135 5.04191 145.364 4.52902 144.552 4.08712C140.056 1.74154 134.886 1.02703 129.922 2.06528C124.959 3.10353 120.508 5.83033 117.33 9.78127C115.371 12.0932 114.095 14.9049 113.645 17.9013C113.493 19.5183 113.493 21.1461 113.645 22.7631C113.851 24.6743 113.824 26.6035 113.564 28.508C113.243 30.2467 112.555 31.8969 111.545 33.348C110.535 34.7992 109.226 36.0178 107.707 36.9224C110.238 36.9191 112.758 36.5777 115.198 35.9074C115.303 35.8769 115.415 35.8812 115.518 35.9196C115.62 35.958 115.707 36.0285 115.766 36.1205C115.829 36.208 115.862 36.3127 115.862 36.4199C115.862 36.5272 115.829 36.6319 115.766 36.7194C114.16 38.6306 111.919 39.899 109.453 40.2922C112.389 42.2062 115.825 43.2092 119.329 43.1748C119.454 43.1716 119.576 43.2158 119.67 43.2986C119.765 43.3814 119.824 43.4967 119.837 43.6214C119.853 43.7456 119.822 43.8714 119.751 43.9744C119.68 44.0775 119.573 44.1506 119.451 44.1796L113.483 45.6717Z" fill="#231F20"/>
<path d="M140.34 62.0843L141.355 79.5626C141.355 79.5626 149.343 88.6976 159.625 83.0847C169.907 77.4717 169.511 68.5702 169.511 68.5702L162.761 35.7552C162.761 35.7552 153.433 33.6034 151.058 15.2319C143.101 21.5323 133.591 25.5684 123.531 26.9146C123.531 26.9146 123.714 47.4683 127.337 55.6391C130.961 63.8098 140.34 62.0843 140.34 62.0843Z" fill="white"/>
<path d="M152.875 85.4089C145.892 85.4089 141.03 79.9787 140.969 79.8975C140.894 79.8136 140.851 79.7057 140.847 79.593L139.832 62.6526C137.691 62.8658 130.058 63.0688 126.84 55.8115C123.217 47.6915 123.004 27.7265 122.993 26.884C122.994 26.7615 123.039 26.6432 123.119 26.5503C123.199 26.4573 123.309 26.3958 123.43 26.3765C133.383 25.0195 142.794 21.0322 150.693 14.8258C150.762 14.7648 150.848 14.724 150.939 14.7079C151.03 14.6918 151.124 14.701 151.21 14.7345C151.296 14.7675 151.37 14.8224 151.427 14.8937C151.485 14.9651 151.522 15.0502 151.535 15.1405C152.733 24.4379 155.758 29.4012 158.082 31.9387C159.338 33.4545 160.989 34.5927 162.852 35.2273C162.946 35.2518 163.03 35.3018 163.097 35.3718C163.163 35.4417 163.208 35.5288 163.228 35.6232L169.988 68.4686C169.988 68.6411 170.292 77.8269 159.838 83.5312C157.714 84.737 155.318 85.3832 152.875 85.4089ZM141.842 79.3189C142.857 80.4253 150.124 87.6724 159.391 82.6075C169.257 77.2077 169.014 68.631 169.014 68.5498L162.325 36.0698C160.64 35.5115 153.007 32.1417 150.683 16.1047C142.88 21.9984 133.722 25.8376 124.049 27.2697C124.049 30.3147 124.557 48.0366 127.794 55.3548C131.215 63.0485 139.883 61.597 140.248 61.5361C140.319 61.5224 140.391 61.5235 140.461 61.5392C140.531 61.5549 140.597 61.585 140.654 61.6275C140.71 61.6742 140.755 61.7315 140.788 61.7959C140.822 61.8604 140.842 61.9308 140.847 62.003L141.842 79.3189Z" fill="#231F20"/>
<path d="M158.955 44.951C161.339 45.3101 163.769 44.7118 165.715 43.2864C167.028 42.2462 168.052 40.8859 168.688 39.336C169.325 37.786 169.552 36.0986 169.348 34.4356C169.286 33.1926 168.939 31.9806 168.333 30.8932C168.037 30.3494 167.627 29.8757 167.132 29.5044C166.636 29.1331 166.066 28.8729 165.461 28.7414C163.962 28.6482 162.473 29.0435 161.218 29.8681C159.249 30.8831 159.188 32.0097 158.112 33.6743C158.234 33.5221 158.325 33.0958 158.447 32.9435" fill="white"/>
<path d="M160.315 45.5703C159.832 45.5684 159.351 45.5311 158.874 45.4586C158.739 45.4362 158.62 45.3618 158.54 45.2517C158.46 45.1415 158.427 45.0044 158.447 44.8699C158.457 44.8042 158.48 44.7412 158.515 44.6845C158.549 44.6278 158.595 44.5786 158.649 44.5398C158.703 44.501 158.764 44.4734 158.829 44.4586C158.893 44.4438 158.96 44.4422 159.026 44.4538C161.274 44.7847 163.563 44.2118 165.39 42.8602C166.633 41.8708 167.601 40.5779 168.201 39.106C168.8 37.634 169.01 36.0327 168.81 34.456C168.77 33.2915 168.461 32.1521 167.907 31.1268C167.645 30.6517 167.285 30.2377 166.852 29.9122C166.418 29.5867 165.919 29.3572 165.39 29.2389C164.131 29.0156 162.873 29.5942 161.472 30.3148C160.509 30.783 159.757 31.5939 159.361 32.5884C159.148 32.9741 158.914 33.4106 158.6 33.8876C158.578 33.9288 158.551 33.9665 158.518 33.9993C158.437 34.1002 158.319 34.1653 158.19 34.1804C158.061 34.1956 157.931 34.1597 157.828 34.0805C157.721 34.0048 157.648 33.8898 157.625 33.7605C157.602 33.6312 157.631 33.4981 157.706 33.3903C157.706 33.3903 157.706 33.2583 157.777 33.1873C157.837 33.0035 157.922 32.8292 158.031 32.6696C158.084 32.6081 158.15 32.5595 158.224 32.5275L158.417 32.1621C158.918 30.9847 159.826 30.0265 160.975 29.4622C162.172 28.8431 163.827 27.9905 165.522 28.2848C166.211 28.4216 166.862 28.7067 167.43 29.1203C167.998 29.534 168.469 30.0663 168.81 30.6802C169.433 31.8411 169.78 33.1295 169.825 34.4459C170.04 36.1933 169.799 37.9664 169.127 39.5935C168.455 41.2207 167.374 42.6466 165.989 43.7331C164.341 44.9329 162.353 45.5764 160.315 45.5703Z" fill="#231F20"/>
<path d="M140.867 71.2802C142.866 71.1364 144.8 70.5064 146.5 69.445C148.2 68.3836 149.615 66.923 150.622 65.1902C154.204 59.2118 152.773 55.3853 152.773 55.3853C152.773 55.3853 147.942 61.5463 140.34 62.0437L140.867 71.2802Z" fill="#231F20"/>
<path d="M140.868 71.7774C140.739 71.7775 140.616 71.7279 140.523 71.639C140.43 71.55 140.375 71.4287 140.37 71.3003L139.832 62.1653C139.828 62.0987 139.837 62.0318 139.859 61.9687C139.881 61.9055 139.915 61.8473 139.959 61.7973C140.003 61.7473 140.057 61.7066 140.117 61.6774C140.177 61.6483 140.243 61.6313 140.309 61.6274C147.587 61.1605 152.327 55.2329 152.378 55.172C152.433 55.1002 152.506 55.0445 152.59 55.0106C152.674 54.9767 152.765 54.9658 152.855 54.9791C152.943 54.9943 153.026 55.0322 153.096 55.0892C153.165 55.1461 153.218 55.2201 153.251 55.3039C153.311 55.4663 154.722 59.4248 151.048 65.5453C150.002 67.3455 148.529 68.8604 146.759 69.9561C144.989 71.0519 142.976 71.6948 140.898 71.8281L140.868 71.7774ZM140.868 62.5409L141.345 70.7319C143.158 70.5086 144.895 69.8728 146.424 68.8734C147.953 67.874 149.233 66.5376 150.165 64.9667C152.591 60.9067 152.652 57.9429 152.469 56.5219C149.43 59.83 145.322 61.9611 140.868 62.5409Z" fill="#231F20"/>
<path d="M139 34.3037C139 34.3037 135.194 44.3319 136.919 45.5296C138.645 46.7273 142.288 44.8191 142.288 44.8191" fill="white"/>
<path d="M138.421 46.4329C137.786 46.462 137.158 46.2916 136.625 45.9457C134.716 44.6262 137.64 36.5671 138.513 34.1209C138.56 33.9963 138.655 33.8955 138.777 33.8404C138.899 33.7853 139.037 33.7803 139.162 33.8266C139.225 33.8502 139.283 33.8861 139.332 33.9321C139.381 33.9782 139.42 34.0335 139.447 34.0949C139.475 34.1563 139.49 34.2225 139.491 34.2897C139.493 34.3569 139.481 34.4237 139.457 34.4863C137.69 39.1452 136.412 44.5348 137.203 45.1032C138.411 45.9355 141.111 44.8596 142.045 44.3724C142.165 44.311 142.304 44.2989 142.433 44.3387C142.562 44.3785 142.67 44.4671 142.735 44.5856C142.795 44.7054 142.805 44.8442 142.764 44.9717C142.722 45.0991 142.631 45.2048 142.512 45.2656C141.247 45.9427 139.853 46.3408 138.421 46.4329Z" fill="#231F20"/>
<path d="M146.487 34.05C147.26 33.8 147.601 32.7109 147.247 31.6175C146.894 30.524 145.98 29.8402 145.207 30.0901C144.433 30.3401 144.093 31.4292 144.446 32.5226C144.8 33.6161 145.713 34.2999 146.487 34.05Z" fill="#231F20"/>
<path d="M132.287 37.3703C133.099 37.3593 133.745 36.4188 133.73 35.2697C133.714 34.1207 133.043 33.1981 132.23 33.2092C131.417 33.2203 130.771 34.1607 130.787 35.3098C130.802 36.4589 131.474 37.3814 132.287 37.3703Z" fill="#231F20"/>
<path d="M140.208 58.4099C139.233 58.4353 138.275 58.1549 137.467 57.608C134.27 55.2735 134.037 50.1173 134.027 49.894C134.024 49.7741 134.063 49.6568 134.137 49.5624C134.211 49.468 134.315 49.4022 134.433 49.3764C147.567 46.5039 147.709 46.6054 147.942 46.778C148 46.8217 148.049 46.8766 148.085 46.9393C148.122 47.002 148.146 47.0714 148.155 47.1434C148.359 49.1898 148.077 51.2552 147.333 53.1725C146.886 54.3478 146.178 55.4062 145.261 56.2678C144.345 57.1294 143.246 57.7716 142.045 58.146C141.448 58.3186 140.83 58.4075 140.208 58.4099ZM135.082 50.2899C135.204 51.518 135.752 55.1111 138.046 56.7757C138.592 57.111 139.206 57.3212 139.843 57.3914C140.48 57.4616 141.124 57.39 141.73 57.1817C142.788 56.8524 143.758 56.2877 144.567 55.53C145.375 54.7724 146.002 53.8415 146.399 52.8071C147.028 51.193 147.291 49.4599 147.171 47.7321C145.425 48.0467 139.264 49.3662 135.082 50.2797V50.2899Z" fill="#231F20"/>
<path d="M146.866 53.01C144.917 57.7196 140.035 58.8463 137.731 57.2121C138.249 55.4156 139.193 53.548 140.949 52.8679C142.875 52.2107 144.973 52.2611 146.866 53.01Z" fill="#231F20"/>
<path d="M140.208 58.3997C139.234 58.4267 138.276 58.15 137.467 57.608C137.384 57.547 137.321 57.4614 137.288 57.3632C137.255 57.2649 137.254 57.1589 137.285 57.0599C137.975 54.5833 139.162 52.9999 140.797 52.3807C142.828 51.6902 145.038 51.7369 147.039 52.5127C147.104 52.5364 147.163 52.5729 147.214 52.6199C147.264 52.667 147.305 52.7237 147.333 52.7867C147.383 52.9139 147.383 53.0554 147.333 53.1826C146.883 54.3553 146.174 55.411 145.258 56.2705C144.342 57.1301 143.244 57.7712 142.045 58.1459C141.447 58.3147 140.829 58.4001 140.208 58.3997ZM138.361 56.9685C139.416 57.4671 140.623 57.5398 141.73 57.1715C142.702 56.8742 143.601 56.3752 144.367 55.7071C145.133 55.039 145.749 54.2168 146.176 53.2942C144.548 52.7532 142.789 52.7532 141.162 53.2942C139.913 53.8017 139 55.04 138.361 56.9685Z" fill="#231F20"/>
<path d="M34.6579 167.137H243.342L276.827 228.29H1.1731L34.6579 167.137Z" fill="white"/>
<path d="M276.827 228.798H1.17308C1.08568 228.797 0.999824 228.775 0.923507 228.732C0.84719 228.69 0.782898 228.629 0.736629 228.554C0.693984 228.477 0.671631 228.389 0.671631 228.301C0.671631 228.212 0.693984 228.125 0.736629 228.047L34.2316 166.893C34.2746 166.812 34.339 166.745 34.4178 166.698C34.4966 166.652 34.5867 166.628 34.6782 166.629H243.332C243.423 166.628 243.513 166.652 243.592 166.698C243.671 166.745 243.735 166.812 243.778 166.893L277.273 228.047C277.316 228.125 277.338 228.212 277.338 228.301C277.338 228.389 277.316 228.477 277.273 228.554C277.226 228.63 277.16 228.692 277.082 228.735C277.004 228.777 276.916 228.799 276.827 228.798ZM2.03583 227.783H275.964L243.037 167.644H34.9624L2.03583 227.783Z" fill="#D1D3D4"/>
<path d="M37.8958 127.684L38.3424 125.755C39.3574 123.827 40.484 122.528 43.1027 122.528H142.441C143.642 122.53 144.81 122.92 145.77 123.641C146.731 124.362 147.432 125.374 147.77 126.527L163.918 182.007C164.335 183.196 164.282 184.5 163.771 185.652C163.26 186.805 162.329 187.719 161.167 188.208L159.412 188.624L37.8958 127.684Z" fill="white"/>
<path d="M159.412 189.132C159.335 189.129 159.259 189.112 159.188 189.081L37.6725 128.12C37.57 128.07 37.4878 127.986 37.4398 127.883C37.3918 127.779 37.3808 127.662 37.4086 127.552L37.8552 125.623C37.8508 125.579 37.8508 125.535 37.8552 125.491C38.8702 123.654 40.0375 122 43.0622 122H142.4C143.71 122.005 144.983 122.432 146.031 123.219C147.079 124.005 147.845 125.108 148.216 126.364L164.375 181.915C164.829 183.226 164.767 184.661 164.201 185.928C163.636 187.195 162.609 188.199 161.33 188.736L159.513 189.172L159.412 189.132ZM38.515 127.41L159.513 188.086L161.086 187.721C163.533 186.767 164.04 184.158 163.461 182.149L147.313 126.669C147.003 125.623 146.365 124.705 145.493 124.051C144.621 123.397 143.562 123.04 142.471 123.035H43.1028C40.8596 123.035 39.8954 124.05 38.8195 125.938L38.515 127.41Z" fill="#231F20"/>
<path d="M159.412 188.624H58.0435C57.3547 188.617 56.6867 188.387 56.1383 187.971C55.5899 187.554 55.1902 186.972 54.9985 186.31L37.9363 127.684C37.8719 127.459 37.8606 127.222 37.9032 126.992C37.9459 126.762 38.0413 126.545 38.1819 126.358C38.3226 126.171 38.5047 126.019 38.7139 125.915C38.9232 125.81 39.1538 125.756 39.3878 125.755H143.466L161.096 186.381C161.174 186.643 161.189 186.919 161.141 187.187C161.093 187.455 160.983 187.709 160.819 187.927C160.655 188.145 160.442 188.322 160.198 188.443C159.954 188.564 159.684 188.626 159.412 188.624Z" fill="#231F20"/>
<path d="M159.412 189.132H58.0435C57.2392 189.128 56.4575 188.865 55.814 188.383C55.1706 187.9 54.6995 187.223 54.4707 186.452L37.4085 127.826C37.3261 127.526 37.3137 127.211 37.3722 126.906C37.4306 126.601 37.5585 126.313 37.7458 126.065C37.9331 125.817 38.1749 125.615 38.4526 125.475C38.7302 125.335 39.0363 125.261 39.3472 125.258H143.466C143.573 125.256 143.679 125.29 143.765 125.354C143.851 125.419 143.914 125.51 143.943 125.613L161.584 186.239C161.681 186.576 161.699 186.931 161.636 187.276C161.573 187.621 161.43 187.947 161.219 188.227C161.009 188.508 160.736 188.736 160.422 188.893C160.108 189.05 159.762 189.132 159.412 189.132ZM39.3472 126.263C39.1927 126.265 39.0409 126.303 38.9032 126.373C38.7655 126.443 38.6455 126.543 38.5525 126.667C38.4595 126.79 38.3959 126.933 38.3665 127.084C38.3371 127.236 38.3428 127.392 38.3829 127.542L55.4349 186.168C55.6028 186.73 55.9471 187.223 56.4169 187.574C56.8867 187.925 57.457 188.115 58.0435 188.117H159.412C159.608 188.118 159.801 188.074 159.977 187.987C160.154 187.901 160.307 187.775 160.427 187.619C160.541 187.464 160.618 187.284 160.652 187.094C160.685 186.904 160.674 186.708 160.619 186.523L143.06 126.263H39.3472Z" fill="#231F20"/>
<path d="M142.41 163.645L136.249 189.842C135.923 191.244 135.131 192.495 134.003 193.389C132.875 194.283 131.477 194.768 130.037 194.765H65.9198C64.9574 194.764 64.0075 194.546 63.1412 194.127C62.275 193.708 61.5147 193.098 60.9173 192.344C60.3199 191.589 59.9008 190.709 59.6914 189.77C59.482 188.83 59.4877 187.856 59.708 186.919L65.1383 163.645H59.8298L54.633 185.721C54.2407 187.421 54.2369 189.188 54.6218 190.889C55.0067 192.591 55.7704 194.184 56.8561 195.549C57.9417 196.915 59.3214 198.018 60.8925 198.777C62.4635 199.536 64.1853 199.93 65.9299 199.931H130.088C132.688 199.93 135.211 199.052 137.252 197.441C139.292 195.83 140.73 193.579 141.334 191.05L147.769 163.645H142.41Z" fill="white"/>
<path d="M130.037 200.51H65.9199C64.0944 200.509 62.2927 200.096 60.6495 199.301C59.0063 198.506 57.5641 197.35 56.4307 195.919C55.2974 194.488 54.5023 192.819 54.1049 191.037C53.7075 189.256 53.718 187.407 54.1358 185.63L59.3224 163.544C59.3498 163.433 59.4138 163.334 59.5041 163.264C59.5943 163.194 59.7056 163.157 59.8198 163.158H65.179C65.2551 163.159 65.33 163.177 65.3984 163.21C65.4668 163.244 65.5271 163.292 65.5748 163.351C65.6214 163.41 65.6539 163.48 65.6697 163.553C65.6855 163.627 65.6843 163.704 65.6662 163.777L60.1953 187.051C59.9936 187.914 59.9894 188.812 60.1829 189.677C60.3765 190.541 60.7629 191.352 61.3132 192.046C61.8635 192.741 62.5637 193.303 63.3613 193.689C64.159 194.075 65.0336 194.277 65.9199 194.278H130.078C131.405 194.28 132.693 193.833 133.733 193.009C134.772 192.185 135.502 191.033 135.803 189.741L141.964 163.544C141.989 163.434 142.051 163.335 142.14 163.265C142.228 163.195 142.338 163.157 142.451 163.158H147.81C147.886 163.159 147.96 163.178 148.028 163.211C148.096 163.244 148.156 163.292 148.203 163.351C148.251 163.41 148.285 163.479 148.303 163.553C148.321 163.626 148.322 163.703 148.307 163.777L141.862 191.182C141.243 193.848 139.734 196.224 137.585 197.919C135.436 199.614 132.775 200.528 130.037 200.51ZM60.175 164.173L55.1 185.864C54.715 187.494 54.7045 189.19 55.0692 190.825C55.4338 192.459 56.1643 193.99 57.2056 195.302C58.2469 196.614 59.572 197.673 61.0814 198.399C62.5907 199.125 64.245 199.5 65.9199 199.495H130.078C132.581 199.502 135.012 198.66 136.974 197.105C138.936 195.551 140.312 193.377 140.878 190.939L147.171 164.173H142.857L136.767 189.974C136.419 191.491 135.565 192.844 134.345 193.811C133.126 194.777 131.614 195.3 130.058 195.293H65.9199C64.8801 195.293 63.8537 195.058 62.9176 194.605C61.9815 194.153 61.16 193.494 60.5146 192.679C59.8692 191.863 59.4166 190.913 59.1909 189.898C58.9651 188.883 58.9719 187.83 59.2108 186.818L64.5294 164.173H60.175Z" fill="#231F20"/>
<path d="M225.092 110.226C225.092 110.226 234.166 150.521 226.736 160.813C219.307 171.105 167.42 169.481 167.42 169.481C167.42 169.481 159.005 179.581 151.697 178.911C144.389 178.241 148.652 164.416 157.249 158.661L156.062 153.86L201.808 146.522L195.718 117.564" fill="white"/>
<path d="M152.367 179.449C152.117 179.449 151.863 179.449 151.606 179.449C150.66 179.402 149.757 179.042 149.037 178.427C148.317 177.812 147.821 176.975 147.627 176.048C146.48 171.552 150.155 162.975 156.62 158.469L155.524 154.013C155.506 153.946 155.502 153.877 155.513 153.808C155.523 153.74 155.548 153.675 155.585 153.617C155.623 153.557 155.674 153.507 155.733 153.468C155.793 153.429 155.86 153.404 155.93 153.394L201.148 146.136L195.16 117.716C195.146 117.651 195.146 117.584 195.159 117.518C195.171 117.453 195.197 117.391 195.234 117.335C195.27 117.279 195.318 117.232 195.373 117.194C195.428 117.157 195.49 117.131 195.556 117.118C195.62 117.103 195.687 117.101 195.753 117.112C195.818 117.124 195.881 117.148 195.936 117.184C195.992 117.22 196.04 117.267 196.078 117.322C196.115 117.376 196.141 117.438 196.155 117.503L202.245 146.461C202.259 146.529 202.26 146.6 202.246 146.668C202.232 146.736 202.204 146.8 202.163 146.857C202.125 146.914 202.076 146.962 202.018 146.999C201.96 147.035 201.896 147.06 201.828 147.07L156.63 154.327L157.645 158.59C157.671 158.69 157.666 158.795 157.63 158.892C157.593 158.988 157.528 159.071 157.442 159.128C151.231 163.29 147.506 171.664 148.571 175.825C148.708 176.543 149.083 177.193 149.636 177.67C150.189 178.147 150.887 178.423 151.616 178.454C158.569 179.104 166.841 169.319 166.902 169.207C166.952 169.148 167.014 169.101 167.084 169.069C167.154 169.037 167.231 169.022 167.308 169.025C167.826 169.025 219.073 170.517 226.239 160.56C233.405 150.602 224.615 110.825 224.524 110.388C224.509 110.321 224.508 110.253 224.52 110.185C224.532 110.118 224.557 110.054 224.593 109.997C224.63 109.939 224.678 109.889 224.734 109.85C224.79 109.811 224.853 109.784 224.92 109.769C224.986 109.754 225.055 109.753 225.122 109.765C225.19 109.777 225.254 109.802 225.311 109.839C225.369 109.875 225.418 109.923 225.457 109.979C225.496 110.035 225.524 110.098 225.539 110.165C225.914 111.819 234.572 150.765 227.092 161.158C219.784 171.308 171.886 170.172 167.552 170.04C166.405 171.379 159.168 179.449 152.367 179.449Z" fill="#231F20"/>
<path d="M170.658 90.2708C170.579 90.2695 170.503 90.2486 170.434 90.2099C170.372 90.1816 170.316 90.1411 170.27 90.0907C170.224 90.0403 170.188 89.9811 170.166 89.9167C170.143 89.8522 170.133 89.7838 170.138 89.7156C170.142 89.6474 170.16 89.5807 170.191 89.5197C177.56 74.2947 196.479 64.0533 196.672 63.9518C196.732 63.9184 196.798 63.8975 196.866 63.8901C196.934 63.8828 197.002 63.8893 197.068 63.9092C197.133 63.9291 197.194 63.962 197.246 64.006C197.299 64.0499 197.342 64.104 197.373 64.165C197.406 64.2254 197.427 64.292 197.435 64.3607C197.442 64.4295 197.436 64.499 197.416 64.5652C197.396 64.6314 197.363 64.693 197.319 64.7463C197.275 64.7996 197.221 64.8435 197.159 64.8755C196.977 64.977 178.351 75.0255 171.135 89.9764C171.09 90.0646 171.022 90.1387 170.938 90.1907C170.853 90.2426 170.757 90.2703 170.658 90.2708Z" fill="#231F20"/>
<path d="M139.375 89.5501C139.302 89.5654 139.226 89.5654 139.152 89.5501C121.471 81.4301 119.329 63.5864 119.309 63.4138C119.295 63.2753 119.336 63.1368 119.423 63.0284C119.511 62.92 119.637 62.8506 119.776 62.8353C119.844 62.8268 119.913 62.8319 119.979 62.8503C120.045 62.8688 120.107 62.9002 120.161 62.9427C120.214 62.9851 120.259 63.0379 120.293 63.0979C120.326 63.1579 120.347 63.2239 120.354 63.292C120.354 63.4646 122.466 80.7297 139.639 88.5046C139.765 88.5622 139.863 88.6668 139.912 88.7958C139.962 88.9249 139.958 89.0681 139.903 89.1948C139.864 89.3025 139.792 89.395 139.698 89.4588C139.603 89.5227 139.49 89.5547 139.375 89.5501Z" fill="#231F20"/>
<path d="M58.815 112.56C58.7047 112.529 58.6077 112.462 58.5386 112.371C58.4695 112.279 58.4321 112.167 58.4321 112.053C58.4321 111.938 58.4695 111.826 58.5386 111.735C58.6077 111.643 58.7047 111.577 58.815 111.545C66.4681 111.312 70.183 106.988 70.2236 106.947C70.2668 106.894 70.32 106.851 70.3801 106.818C70.4403 106.786 70.5063 106.766 70.5742 106.76C70.6421 106.753 70.7107 106.76 70.7759 106.78C70.8411 106.8 70.9018 106.833 70.9544 106.876C71.0617 106.965 71.1294 107.093 71.1427 107.232C71.1561 107.371 71.1139 107.509 71.0254 107.617C70.863 107.81 66.9654 112.347 58.8454 112.591L58.815 112.56Z" fill="#231F20"/>
<path d="M195.657 118.082C195.54 118.083 195.426 118.044 195.334 117.972C195.242 117.9 195.177 117.8 195.15 117.686C195.15 117.503 190.369 98.7968 189.709 87.5811C189.705 87.513 189.714 87.4449 189.737 87.3805C189.759 87.3161 189.794 87.2568 189.839 87.2059C189.884 87.1549 189.939 87.1135 190 87.0838C190.062 87.0541 190.128 87.0368 190.196 87.033C190.335 87.0246 190.471 87.071 190.575 87.1621C190.68 87.2533 190.744 87.3819 190.755 87.5202C191.414 98.6344 196.124 117.239 196.165 117.432C196.199 117.567 196.178 117.709 196.108 117.829C196.038 117.949 195.923 118.036 195.789 118.072L195.657 118.082Z" fill="#231F20"/>
<path d="M113.848 121.421C113.779 121.417 113.712 121.4 113.65 121.369C113.588 121.339 113.532 121.297 113.487 121.245C113.442 121.193 113.407 121.132 113.385 121.066C113.364 121.001 113.356 120.932 113.361 120.863L115.878 81.43C115.882 81.3611 115.9 81.2936 115.93 81.2316C115.96 81.1695 116.003 81.1142 116.055 81.0688C116.107 81.0234 116.167 80.9889 116.233 80.9672C116.298 80.9456 116.368 80.9373 116.436 80.9428C116.505 80.9453 116.572 80.9617 116.634 80.9909C116.696 81.0201 116.752 81.0616 116.797 81.1128C116.843 81.164 116.877 81.2239 116.899 81.2889C116.921 81.3539 116.929 81.4226 116.924 81.4909L114.366 120.924C114.361 121.057 114.304 121.184 114.207 121.277C114.111 121.369 113.982 121.421 113.848 121.421Z" fill="#231F20"/>
<path d="M203.716 99.3652C203.622 99.3663 203.53 99.3413 203.449 99.2929C203.368 99.2445 203.303 99.1747 203.26 99.0912L198.347 89.9562C198.292 89.8228 198.292 89.6733 198.347 89.54C198.394 89.4036 198.492 89.2909 198.621 89.2254L213.846 82.029C213.908 81.9981 213.975 81.9799 214.044 81.9754C214.113 81.971 214.182 81.9804 214.248 82.0031C214.313 82.0258 214.373 82.0613 214.424 82.1076C214.476 82.1539 214.517 82.21 214.546 82.2726C214.606 82.3979 214.614 82.5417 214.568 82.6728C214.523 82.8039 214.427 82.9117 214.303 82.973L199.545 89.9359L203.99 98.1777L218.941 93.6102C219.008 93.5902 219.078 93.5835 219.147 93.5905C219.216 93.5976 219.283 93.6182 219.345 93.6512C219.406 93.6841 219.46 93.7289 219.504 93.7828C219.548 93.8367 219.581 93.8988 219.601 93.9654C219.621 94.0321 219.628 94.102 219.621 94.1712C219.614 94.2404 219.593 94.3076 219.56 94.3689C219.527 94.4301 219.482 94.4843 219.428 94.5283C219.374 94.5723 219.312 94.6052 219.246 94.6252L203.869 99.3754L203.716 99.3652Z" fill="#231F20"/>
<path d="M216.901 215.187C230.742 215.187 241.962 211.81 241.962 207.645C241.962 203.48 230.742 200.104 216.901 200.104C203.061 200.104 191.841 203.48 191.841 207.645C191.841 211.81 203.061 215.187 216.901 215.187Z" fill="white"/>
<path d="M216.901 215.694C202.569 215.694 191.333 212.162 191.333 207.645C191.333 203.129 202.569 199.596 216.901 199.596C231.233 199.596 242.469 203.129 242.469 207.645C242.469 212.162 231.233 215.694 216.901 215.694ZM216.901 200.611C202.214 200.611 192.348 204.245 192.348 207.645C192.348 211.046 202.214 214.679 216.901 214.679C231.588 214.679 241.454 211.046 241.454 207.645C241.454 204.245 231.588 200.611 216.901 200.611Z" fill="#D1D3D4"/>
<path d="M198.012 186.107L197.413 186.219C195.602 186.489 193.954 187.418 192.785 188.827C192.129 189.829 191.768 190.994 191.741 192.19C191.714 193.387 192.023 194.567 192.632 195.597C195.292 200.388 201.767 201.687 206.761 202.185C207.468 202.3 208.192 202.244 208.872 202.022C209.208 201.907 209.501 201.692 209.71 201.405C209.918 201.118 210.034 200.773 210.04 200.418C209.997 200.127 209.881 199.85 209.704 199.614C209.527 199.378 209.293 199.191 209.025 199.069C208.501 198.826 207.943 198.668 207.37 198.602C204.264 198.094 200.996 197.719 198.154 196.287C196.5 195.445 194.185 193.527 195.393 191.456C195.816 190.8 196.423 190.285 197.139 189.974C199.991 188.614 202.701 189.649 205.513 190.482C205.717 190.557 205.935 190.588 206.152 190.573C206.421 190.499 206.653 190.329 206.805 190.095C206.956 189.861 207.017 189.58 206.974 189.304C206.883 188.076 205.655 187.274 204.498 186.817C202.431 186.033 200.199 185.788 198.012 186.107Z" fill="white"/>
<path d="M207.604 202.743C207.309 202.742 207.014 202.725 206.721 202.692C199.098 201.972 194.348 199.739 192.186 195.841C191.527 194.726 191.196 193.449 191.23 192.154C191.265 190.86 191.663 189.601 192.379 188.523C193.624 187.016 195.379 186.018 197.312 185.721L197.941 185.61C200.227 185.269 202.563 185.524 204.721 186.351C205.736 186.726 207.391 187.609 207.523 189.264C207.574 189.669 207.474 190.078 207.241 190.413C207.009 190.749 206.661 190.986 206.264 191.081C205.975 191.1 205.686 191.062 205.411 190.969L204.681 190.746C202.184 189.984 199.829 189.274 197.403 190.431C196.774 190.697 196.24 191.146 195.87 191.72C195.738 191.929 195.653 192.164 195.619 192.41C195.586 192.655 195.606 192.904 195.678 193.141C196.235 194.34 197.209 195.296 198.418 195.831C200.938 196.928 203.612 197.633 206.345 197.922L207.492 198.104C208.123 198.174 208.737 198.349 209.309 198.622C209.717 198.775 210.064 199.056 210.301 199.422C210.537 199.788 210.649 200.22 210.621 200.655C210.592 201.09 210.425 201.504 210.143 201.836C209.861 202.168 209.48 202.401 209.055 202.499C208.59 202.668 208.098 202.751 207.604 202.743ZM198.093 186.615L197.515 186.716C195.829 186.967 194.293 187.822 193.191 189.122C192.592 190.046 192.264 191.12 192.244 192.222C192.225 193.323 192.514 194.408 193.079 195.354C195.058 198.927 199.555 200.997 206.812 201.677C207.436 201.78 208.075 201.738 208.68 201.555C208.915 201.476 209.122 201.328 209.274 201.131C209.425 200.935 209.515 200.697 209.532 200.449C209.499 200.247 209.418 200.056 209.294 199.894C209.17 199.731 209.008 199.601 208.822 199.515C208.35 199.3 207.846 199.163 207.33 199.109L206.183 198.927C203.346 198.625 200.572 197.885 197.961 196.734C196.5 196.083 195.337 194.905 194.703 193.435C194.592 193.064 194.561 192.672 194.611 192.287C194.662 191.903 194.794 191.533 194.998 191.202C195.468 190.454 196.154 189.866 196.967 189.518C199.748 188.188 202.407 188.99 204.975 189.771L205.706 189.995C205.842 190.045 205.987 190.069 206.132 190.066C206.376 190.066 206.528 189.65 206.508 189.345C206.426 188.208 204.975 187.538 204.356 187.315C202.362 186.553 200.205 186.319 198.093 186.635V186.615Z" fill="#231F20"/>
<path d="M200.357 180.971C200.357 180.971 205.046 204.377 205.432 205.788C205.817 207.199 216.901 212.994 225.732 207.3L233.456 183.377L200.357 180.971Z" fill="white"/>
<path d="M217.094 210.274C214.441 210.252 211.814 209.75 209.339 208.792C207.391 208.041 205.178 206.823 204.934 205.92C204.559 204.509 200.052 182.037 199.859 181.073C199.841 180.996 199.841 180.917 199.86 180.841C199.879 180.765 199.916 180.695 199.967 180.636C200.019 180.577 200.084 180.532 200.157 180.503C200.231 180.475 200.309 180.465 200.387 180.474L233.486 182.93C233.564 182.934 233.639 182.955 233.706 182.993C233.774 183.031 233.832 183.084 233.875 183.148C233.918 183.212 233.946 183.285 233.956 183.362C233.966 183.439 233.958 183.517 233.933 183.59L226.209 207.513C226.171 207.624 226.095 207.717 225.996 207.777C223.336 209.46 220.241 210.328 217.094 210.274ZM200.986 181.529C201.747 185.336 205.584 204.407 205.919 205.656C206.061 205.991 207.888 207.351 211.126 208.335C214.171 209.259 219.997 210.305 225.336 206.975L232.806 183.844L200.986 181.529Z" fill="#231F20"/>
<path d="M233.535 182.336C233.698 178.371 226.406 174.851 217.249 174.475C208.091 174.1 200.536 177.01 200.373 180.975C200.21 184.941 207.502 188.46 216.659 188.836C225.817 189.212 233.373 186.302 233.535 182.336Z" fill="#231F20"/>
<path d="M218.241 189.375C217.703 189.375 217.165 189.375 216.627 189.375C207.035 188.99 199.666 185.315 199.849 180.992C200.032 176.668 207.675 173.623 217.256 174.018C226.838 174.414 234.207 178.078 234.024 182.402C233.943 184.534 231.994 186.462 228.634 187.721C225.297 188.892 221.777 189.453 218.241 189.375ZM215.693 174.952C207.644 174.952 200.996 177.591 200.854 181.042C200.712 184.656 207.959 188.015 216.668 188.371C220.621 188.601 224.582 188.046 228.32 186.736C231.263 185.61 232.989 183.996 233.06 182.321C233.212 178.698 225.955 175.338 217.256 174.983L215.693 174.952Z" fill="#231F20"/>
<path d="M177.235 115.94H123.531C123.397 115.94 123.268 115.887 123.172 115.791C123.077 115.696 123.024 115.567 123.024 115.433V99.5783C123.026 99.4445 123.081 99.3169 123.175 99.2223C123.27 99.1277 123.397 99.0734 123.531 99.0708H177.235C177.369 99.0708 177.499 99.1243 177.594 99.2194C177.689 99.3146 177.742 99.4437 177.742 99.5783V115.463C177.735 115.592 177.678 115.714 177.583 115.802C177.489 115.891 177.364 115.94 177.235 115.94ZM124.039 114.925H176.727V100.086H124.039V114.925Z" fill="white"/>
<path d="M276.817 228.291H1.1731V238.918H276.817V228.291Z" fill="white"/>
<path d="M276.827 239.425H1.17303C1.03843 239.425 0.909345 239.372 0.81417 239.276C0.718996 239.181 0.665527 239.052 0.665527 238.918V228.29C0.668126 228.157 0.72243 228.029 0.817047 227.934C0.911664 227.84 1.03924 227.786 1.17303 227.783H276.827C276.961 227.786 277.088 227.84 277.183 227.934C277.277 228.029 277.332 228.157 277.334 228.29V238.918C277.334 239.052 277.281 239.181 277.186 239.276C277.09 239.372 276.961 239.425 276.827 239.425ZM1.68053 238.41H276.319V228.798H1.68053V238.41Z" fill="#D1D3D4"/>
<path d="M233.446 129.044C233.312 129.039 233.185 128.982 233.093 128.885C233 128.789 232.948 128.66 232.948 128.526C232.948 127.359 233.689 99.8423 236.724 90.3114C239.759 80.7806 245.453 76.8119 245.686 76.6597C245.798 76.5843 245.935 76.5564 246.068 76.5821C246.2 76.6078 246.317 76.685 246.392 76.7967C246.467 76.9084 246.495 77.0455 246.47 77.1778C246.444 77.3101 246.367 77.4267 246.255 77.5021C246.194 77.5021 240.642 81.349 237.688 90.6159C234.735 99.8829 233.973 128.262 233.963 128.546C233.962 128.613 233.947 128.679 233.921 128.74C233.894 128.801 233.856 128.856 233.807 128.902C233.759 128.949 233.703 128.985 233.641 129.009C233.579 129.033 233.512 129.045 233.446 129.044Z" fill="white"/>
<g clip-path="url(#clip0_32_208)">
<path fill-rule="evenodd" clip-rule="evenodd" d="M167.928 107.847L165.261 107.881C165.384 107.357 165.966 106.979 166.571 106.968C167.257 106.955 167.775 107.404 167.928 107.847ZM165.708 109.5C165.556 109.463 165.583 109.526 165.437 109.387C165.307 109.264 165.317 109.219 165.252 109.028L165.669 109.01C166.53 109 167.802 109.086 168.602 109.009C169.896 108.884 169.136 106.369 167.258 105.937C166.324 105.722 165.503 105.951 164.949 106.412C163.71 107.445 163.551 109.218 164.79 110.333C166.48 111.853 168.816 110.499 168.646 109.763C168.196 109.02 167.871 109.362 167.344 109.692C166.954 109.937 166.061 110.073 165.708 109.5V109.5Z" fill="white"/>
<path fill-rule="evenodd" clip-rule="evenodd" d="M169.714 105.775L169.713 109.763C169.715 110.594 169.6 110.486 170.084 111.015C171.006 110.996 171.659 109.722 172.368 109.297C172.939 109.654 174.261 111.522 174.886 110.853C175.171 110.181 174.596 109.801 174.283 109.467C173.924 109.083 173.518 108.817 173.248 108.39C173.9 107.661 175.42 106.72 174.89 106.044C174.111 105.05 171.975 108.621 170.886 108.994L170.858 104.936C170.858 104.186 170.87 104.013 170.07 103.993C169.524 104.652 169.716 104.788 169.714 105.775Z" fill="white"/>
<path fill-rule="evenodd" clip-rule="evenodd" d="M153.494 107.035C155.262 106.532 156.114 109.211 154.341 109.81C152.462 110.445 151.358 107.643 153.494 107.035ZM155.26 110.641C155.261 110.642 156.199 111.538 156.474 110.55L156.498 106.419C156.342 105.294 155.263 106.219 155.26 106.219C154.188 105.901 153.559 105.566 152.412 106.253C150.66 107.303 150.918 109.827 152.497 110.673C153.59 111.258 154.258 111.026 155.26 110.641V110.641Z" fill="white"/>
<path fill-rule="evenodd" clip-rule="evenodd" d="M142.86 111.005C143.747 110.983 143.747 110.379 143.994 109.686C144.413 108.513 145.908 104.802 145.722 104.163C144.655 103.718 144.675 104.37 144.123 105.931C143.934 106.466 143.368 108.275 143.102 108.595L143.007 108.468C142.724 107.974 141.635 104.358 141.35 104.127C140.81 103.689 140.256 104.171 140.511 104.951C140.805 105.848 142.44 110.541 142.86 111.005Z" fill="white"/>
<path fill-rule="evenodd" clip-rule="evenodd" d="M147.9 105.461C147.898 106.691 147.706 108.686 148.265 109.658C148.688 110.395 150.08 111.516 151.174 110.727C151.239 109.658 150.501 110.105 149.839 109.698C148.982 109.17 149.069 108.348 149.069 107.454C149.069 106.752 149.358 106.981 150.097 106.981C150.62 106.981 151.278 106.953 151.174 106.319C151.088 105.799 150.528 105.859 149.986 105.878C148.927 105.915 149.071 106.054 149.069 104.726C149.069 104.25 148.756 103.828 148.24 104.06C147.751 104.281 147.9 105.011 147.9 105.461Z" fill="white"/>
<path fill-rule="evenodd" clip-rule="evenodd" d="M161.963 107.06C162.346 106.836 163.12 107.157 163.878 106.744C163.976 106.323 163.941 105.95 163.44 105.87L162.005 105.8C161.487 105.636 162.319 104.055 161.272 103.997C160.445 103.952 160.71 105.228 160.709 105.88C160.703 107.616 160.238 110.571 162.951 110.984C164.098 111.159 164.186 110.272 163.634 109.996C162.916 109.638 162.537 109.989 162.036 109.128C161.825 108.767 161.66 107.422 161.963 107.06H161.963Z" fill="white"/>
<path fill-rule="evenodd" clip-rule="evenodd" d="M157.144 110.946C159.025 111.365 157.531 108.658 158.451 107.529C158.828 107.066 159.076 107.132 159.761 106.916C160.415 106.709 160.277 106.008 159.761 105.886C159.146 105.742 158.642 106.091 158.165 106.217C157.905 106.05 157.517 105.568 157.143 106.025C156.9 106.323 156.992 107.194 156.992 107.664C156.994 108.612 156.846 110.11 157.144 110.946V110.946Z" fill="white"/>
<path fill-rule="evenodd" clip-rule="evenodd" d="M146.275 107.559L146.276 109.553C146.278 110.376 146.151 110.471 146.618 111.009C147.838 110.995 147.44 109.485 147.438 107.664C147.437 107.038 147.618 105.867 146.865 105.861C146.118 105.854 146.275 106.881 146.275 107.559H146.275Z" fill="white"/>
<path fill-rule="evenodd" clip-rule="evenodd" d="M146.263 104.385L146.514 105.031L147.339 104.986C147.484 104.333 147.501 104.121 146.76 103.987L146.263 104.385H146.263Z" fill="white"/>
<path fill-rule="evenodd" clip-rule="evenodd" d="M127.357 102H136.606C137.353 102 137.963 102.595 137.963 103.323V111.677C137.963 112.405 137.353 113 136.606 113H127.357C126.611 113 126 112.405 126 111.677V103.323C126 102.595 126.611 102 127.357 102ZM130.96 110.475C131.308 110.778 131.258 111.068 131.697 111.33C132.361 111.216 132.629 110.334 132.953 109.832C133.585 108.854 136.026 105.649 136.115 105.041C135.721 104.658 133.959 103.86 133.328 103.908C132.926 104.799 132.335 107.66 131.804 108.293L130.478 103.77C129.435 103.838 128.361 104.486 127.602 104.816C127.682 105.311 128.925 107.116 129.257 107.633C129.776 108.442 130.618 109.625 130.96 110.475V110.475Z" fill="white"/>
</g>
<defs>
<clipPath id="clip0_32_208">
<rect width="49" height="11" fill="white" transform="translate(126 102)"/>
</clipPath>
</defs>
</svg>
