<?xml version="1.0" encoding="UTF-8"?>
<!DOCTYPE svg PUBLIC "-//W3C//DTD SVG 1.1//EN" "http://www.w3.org/Graphics/SVG/1.1/DTD/svg11.dtd">
<!-- Creator: CorelDRAW 2020 (64-Bit) -->
<svg xmlns="http://www.w3.org/2000/svg" xml:space="preserve" width="57.8374mm" height="13.3136mm" version="1.1" style="shape-rendering:geometricPrecision; text-rendering:geometricPrecision; image-rendering:optimizeQuality; fill-rule:evenodd; clip-rule:evenodd"
viewBox="0 0 97811.84 22515.32"
 xmlns:xlink="http://www.w3.org/1999/xlink"
 xmlns:xodm="http://www.corel.com/coreldraw/odm/2003">
 <defs>
  <style type="text/css">
   <![CDATA[
    .fil1 {fill:none}
    .fil0 {fill:#333333}
    .fil2 {fill:#FBC14A}
   ]]>
  </style>
 </defs>
 <g id="Capa_x0020_1">
  <metadata id="CorelCorpID_0Corel-Layer"/>
  <path class="fil0" d="M83694.78 11967.78l-5323.24 70.52c245.05,-1073.88 1407.55,-1847.75 2614.35,-1870.25 1369.83,-25.71 2404.14,894.28 2708.89,1799.72zm-4430.65 3384c-305.08,-76.27 -249.95,53.78 -542.52,-231.52 -259.08,-252.49 -238.11,-344.15 -368.33,-734.47l832.55 -36.53c1718.89,-20.46 4258.32,154.4 5853.92,-3.21 2582.56,-254.69 1067.29,-5402.89 -2682.84,-6287.2 -1864.83,-439.7 -3502.38,27.73 -4608.05,972.41 -2474.32,2113.94 -2791.75,5742.31 -317.77,8024.69 3374.19,3112.73 8036.86,339.75 7697.96,-1166.89 -900.2,-1519.67 -1548.76,-820.21 -2600.15,-144.42 -779.28,500.58 -2561.76,779.45 -3264.77,-392.85z"/>
  <path class="fil0" d="M87258.88 7727.55l-0.34 8161.5c3.55,1700.79 -226.95,1480.6 739.71,2563.45 1840.65,-38.22 3143.18,-2645.81 4559.18,-3515.91 1140.85,730.75 3779.39,4552.75 5025.6,3185.28 569.07,-1376.26 -578.54,-2154.19 -1201.9,-2837.41 -717.22,-786.55 -1528.12,-1329.92 -2066.42,-2204.59 1300.5,-1492.44 4334.42,-3419.17 3277.62,-4802.2 -1555.18,-2035.3 -5819.25,5274.87 -7992.55,6037.92l-55.81 -8306.26c-1.52,-1534.55 23.68,-1889.69 -1573.28,-1928.93 -1090.29,1348.86 -706.56,1625.54 -711.81,3647.14z"/>
  <path class="fil0" d="M54883.13 10306.9c3529.1,-1029.74 5229.72,4452.8 1689.12,5679.57 -3750.64,1299.48 -5953.19,-4435.55 -1689.12,-5679.57zm3524.7 7379.68c2.54,1.86 1874.81,1836.76 2422.58,-185.86l49.21 -8454.91c-312.02,-2303.01 -2466.55,-410.61 -2471.79,-409.94 -2140.83,-651.77 -3396.34,-1336.35 -5685.65,69.84 -3497.81,2148.61 -2981.33,7314.91 169.45,9045.97 2182.43,1199.03 3515.91,723.81 5516.2,-65.11z"/>
  <path class="fil0" d="M33655.28 18432.04c1771.31,-45.49 1769.79,-1280.37 2264.11,-2700.77 835.77,-2400.25 3819.13,-9996.23 3449.44,-11303.83 -2131.53,-911.36 -2090.26,424.48 -3192.05,3618.05 -377.97,1095.53 -1508.51,4798.14 -2038.68,5454.64l-189.41 -260.27c-566.03,-1012.32 -2739.5,-8412.47 -3308.4,-8886.16 -1076.76,-896.65 -2182.94,90.31 -1673.56,1686.42 586.49,1837.1 3849.06,11441.83 4688.55,12391.92z"/>
  <path class="fil0" d="M43714.59 7083.39c-3.21,2518.13 -386.09,6602.76 728.55,8590.38 846.08,1508.85 3624.98,3803.23 5808.6,2189.2 129.2,-2188.86 -1345.14,-1273.94 -2666.61,-2107.34 -1710.26,-1078.96 -1536.92,-2763.17 -1536.24,-4591.65 0.17,-1437.48 577.02,-969.2 2052.21,-968.52 1043.95,0.34 2357.13,-57.84 2149.29,-1354.27 -170.81,-1064.92 -1288.83,-943.16 -2369.98,-904.09 -2115.46,76.1 -1826.95,359.88 -1830.67,-2357.3 -1.18,-974.61 -625.39,-1839.13 -1655.98,-1362.73 -975.29,451.03 -678.15,1944.99 -679.17,2866.33z"/>
  <path class="fil0" d="M71787.38 10358.14c765.42,-460.33 2310.45,197.36 3822.51,-648.05 196.85,-861.81 125.99,-1625.7 -874.33,-1787.72l-2864.81 -144.09c-1032.62,-335.02 627.25,-3571.37 -1461.49,-3689.92 -1651.75,-93.52 -1121.74,2519.31 -1125.46,3853.97 -10.15,3552.26 -938.42,9600.5 4475.46,10446.58 2289.65,357.85 2466.21,-1458.11 1364.93,-2021.26 -1433.59,-732.95 -2190.89,-15.56 -3191.2,-1777.06 -419.74,-739.2 -749.35,-3491.89 -145.61,-4232.45z"/>
  <path class="fil0" d="M62168.78 18310.27c3753.85,859.27 772.69,-4681.79 2609.28,-6993.76 752.73,-947.72 1247.73,-811.41 2614.35,-1254.5 1306.25,-423.3 1030.42,-1858.24 0.51,-2106.84 -1227.78,-296.29 -2234.86,418.56 -3185.96,676.46 -519.69,-341.27 -1294.75,-1329.08 -2040.21,-392.69 -486.04,610.34 -302.55,2393.49 -300.86,3354.57 3.38,1940.77 -292.91,5006.15 302.89,6716.75z"/>
  <path class="fil1" d="M56572.25 15986.46c3540.6,-1226.76 1839.97,-6709.31 -1689.12,-5679.57"/>
  <path class="fil0" d="M40472.65 11378.75l0.68 4080.75c4.9,1684.39 -248.26,1878.7 683.39,2980.66 2435.26,-28.07 1640.76,-3118.65 1636.36,-6846.63 -0.68,-1281.22 360.55,-3677.07 -1142.71,-3690.6 -1490.75,-13.7 -1177.89,2088.57 -1177.72,3475.82z"/>
  <path class="fil0" d="M40448.3 4882.19l500.58 1322.99 1647.35 -93.86c289.19,-1336.52 322.84,-1768.78 -1155.73,-2044.77l-992.2 815.64z"/>
  <path class="fil2" d="M2708.55 0l18463.66 0c1489.74,0 2708.55,1218.81 2708.55,2708.55l0 17098.22c0,1489.74 -1218.81,2708.55 -2708.55,2708.55l-18463.66 0c-1489.74,0 -2708.55,-1218.81 -2708.55,-2708.55l0 -17098.22c0,-1489.74 1218.81,-2708.55 2708.55,-2708.55zm7191.62 17346.65c694.89,620.82 596.3,1214.59 1471.64,1750.17 1326.54,-233.89 1860.94,-2039.19 2507.64,-3065.72 1260.92,-2001.31 6133.98,-8562.47 6311.72,-9807.16 -786.22,-782.5 -4303.81,-2417.33 -5562.37,-2318.91 -803.64,1823.23 -1982.88,7679.69 -3042.21,8975.11l-2647.16 -9256.86c-2081.64,138.67 -4226.19,1465.89 -5742.48,2140.83 159.64,1013 2641.24,4706.81 3303.67,5764.97 1037.01,1656.31 2716.84,4077.87 3399.55,5817.56z"/>
 </g>
</svg>
