<svg width="219" height="51" viewBox="0 0 219 51" fill="none" xmlns="http://www.w3.org/2000/svg">
<g id="logo-v-img">
    <path fill-rule="evenodd" clip-rule="evenodd" d="M6.05329 0H47.3174C50.6468 0 53.3707 2.7239 53.3707 6.05329V44.2658C53.3707 47.5952 50.6468 50.3191 47.3174 50.3191H6.05329C2.72391 50.3191 0 47.5952 0 44.2658V6.05329C0 2.72391 2.7239 0 6.05329 0ZM22.1257 38.7677C23.6787 40.1552 23.4584 41.4822 25.4147 42.6792C28.3793 42.1565 29.5737 38.1218 31.019 35.8277C33.837 31.355 44.7277 16.6915 45.1249 13.9098C43.3678 12.161 35.5064 8.50734 32.6937 8.72731C30.8976 12.802 28.2622 25.8905 25.8947 28.7856L19.9786 8.09764C15.3264 8.40757 10.5335 11.3737 7.14482 12.8821C7.50161 15.1461 13.0477 23.4013 14.5281 25.7662C16.8457 29.4679 20.5999 34.8798 22.1257 38.7678V38.7677Z" fill="#ffffff"/>
</g>
<g id="logo-letters" clip-path="hola">

    <path fill-rule="evenodd" clip-rule="evenodd" d="M187.048 26.7466L175.151 26.9042C175.699 24.5042 178.297 22.7747 180.994 22.7244C184.055 22.6669 186.367 24.723 187.048 26.7466ZM177.146 34.3094C176.464 34.1389 176.587 34.4296 175.934 33.792C175.355 33.2277 175.401 33.0228 175.11 32.1505L176.971 32.0689C180.813 32.0232 186.488 32.414 190.054 32.0617C195.826 31.4925 192.439 19.9869 184.058 18.0106C179.89 17.0279 176.231 18.0725 173.76 20.1838C168.23 24.9082 167.52 33.0172 173.049 38.118C180.59 45.0746 191.011 38.8773 190.253 35.5101C188.242 32.1139 186.792 33.6771 184.442 35.1874C182.701 36.3061 178.717 36.9294 177.146 34.3094V34.3094Z" fill="#FDFDFF"/>
    <path fill-rule="evenodd" clip-rule="evenodd" d="M195.013 17.2702L195.013 35.5102C195.021 39.3113 194.506 38.8192 196.666 41.2392C200.78 41.1538 203.691 35.3261 206.855 33.3816C209.405 35.0147 215.302 43.5564 218.087 40.5003C219.359 37.4245 216.794 35.6859 215.401 34.159C213.798 32.4011 211.985 31.1868 210.782 29.232C213.689 25.8966 220.469 21.5906 218.108 18.4997C214.632 13.951 205.102 30.2884 200.245 31.9937L200.12 13.4302C200.117 10.0006 200.173 9.20694 196.604 9.11926C194.168 12.1338 195.025 12.7521 195.013 17.2702Z" fill="#FDFDFF"/>
    <path fill-rule="evenodd" clip-rule="evenodd" d="M122.657 23.0348C130.545 20.7334 134.345 32.9863 126.432 35.7279C118.05 38.6321 113.128 25.815 122.657 23.0348ZM130.535 39.5275C130.54 39.5316 134.725 43.6324 135.949 39.1121L136.059 20.2164C135.362 15.0694 130.546 19.2987 130.535 19.3002C125.75 17.8436 122.944 16.3136 117.828 19.4563C110.011 24.2582 111.165 35.8043 118.207 39.673C123.084 42.3527 126.064 41.2906 130.535 39.5275V39.5275Z" fill="#FDFDFF"/>
    <path fill-rule="evenodd" clip-rule="evenodd" d="M75.2156 41.1934C79.1743 41.0918 79.1709 38.3319 80.2756 35.1575C82.1435 29.7932 88.8109 12.8171 87.9847 9.89477C83.221 7.85799 83.3132 10.8434 80.8509 17.9807C80.0061 20.4291 77.4795 28.704 76.2946 30.1712L75.8713 29.5895C74.6063 27.3271 69.7489 10.7886 68.4774 9.72999C66.071 7.72608 63.5988 9.93181 64.7372 13.4989C66.048 17.6046 73.3394 39.0701 75.2156 41.1934Z" fill="#FDFDFF"/>
    <path fill-rule="evenodd" clip-rule="evenodd" d="M97.697 15.8306C97.6899 21.4583 96.8342 30.587 99.3253 35.0291C101.216 38.4012 107.427 43.5289 112.307 39.9217C112.596 35.0298 109.301 37.0746 106.347 35.212C102.525 32.8007 102.912 29.0366 102.914 24.9502C102.914 21.7376 104.203 22.7842 107.5 22.7857C109.833 22.7864 112.768 22.6564 112.304 19.759C111.922 17.3791 109.423 17.6512 107.007 17.7385C102.279 17.9086 102.924 18.5428 102.916 12.4702C102.913 10.2921 101.518 8.35998 99.2149 9.42467C97.0352 10.4327 97.6993 13.7715 97.697 15.8306Z" fill="#FDFDFF"/>
    <path fill-rule="evenodd" clip-rule="evenodd" d="M160.436 23.1493C162.147 22.1205 165.6 23.5903 168.979 21.701C169.419 19.7749 169.261 18.0677 167.025 17.7056L160.623 17.3836C158.315 16.6349 162.025 9.402 157.356 9.13706C153.665 8.92805 154.85 14.7674 154.841 17.7502C154.819 25.6891 152.744 39.2062 164.843 41.0971C169.96 41.8969 170.355 37.8384 167.894 36.5798C164.69 34.9418 162.997 36.5451 160.762 32.6083C159.824 30.9563 159.087 24.8043 160.436 23.1493H160.436Z" fill="#FDFDFF"/>
    <path fill-rule="evenodd" clip-rule="evenodd" d="M138.94 40.9214C147.329 42.8417 140.667 30.4581 144.771 25.2911C146.454 23.1731 147.56 23.4777 150.614 22.4875C153.533 21.5415 152.917 18.3345 150.615 17.7789C147.871 17.1168 145.621 18.7144 143.495 19.2907C142.334 18.528 140.601 16.3204 138.935 18.4131C137.849 19.7772 138.259 23.7623 138.263 25.9102C138.271 30.2476 137.608 37.0984 138.94 40.9214V40.9214Z" fill="#FDFDFF"/>
    <path fill-rule="evenodd" clip-rule="evenodd" d="M90.4516 25.4302L90.4531 34.5502C90.4641 38.3146 89.8983 38.7489 91.9804 41.2116C97.423 41.1489 95.6473 34.2418 95.6375 25.9102C95.636 23.0468 96.4433 17.6924 93.0837 17.6621C89.752 17.6315 90.4512 22.3299 90.4516 25.4302H90.4516Z" fill="#FDFDFF"/>
    <path fill-rule="evenodd" clip-rule="evenodd" d="M90.3972 10.9111L91.516 13.8678L95.1976 13.6581C95.8439 10.6711 95.9191 9.70508 92.6147 9.08826L90.3972 10.9111H90.3972Z" fill="#FDFDFF"/>

    
</g>
<defs>
<clipPath id="clip0_25_83">
    <rect width="218.598" height="50.3191" fill="white"/>
</clipPath>
</defs>
</svg>
