<svg width="239" height="432" viewBox="0 0 239 432" fill="none" xmlns="http://www.w3.org/2000/svg">
<path d="M239 102.659H236.62V37.6346C236.62 32.6923 235.644 27.7985 233.747 23.2325C231.851 18.6664 229.071 14.5176 225.567 11.0229C222.062 7.52823 217.902 4.75609 213.323 2.86477C208.745 0.973454 203.837 3.89765e-06 198.882 1.05333e-10H60.7383C55.7825 -1.16926e-05 50.8751 0.973423 46.2965 2.86473C41.7179 4.75603 37.5577 7.52816 34.0533 11.0228C30.549 14.5175 27.7692 18.6663 25.8727 23.2324C23.9762 27.7984 23 32.6922 23 37.6345V394.365C23 404.347 26.976 413.919 34.0533 420.977C41.1305 428.035 50.7294 432 60.7382 432H198.881C208.89 432 218.489 428.035 225.566 420.977C232.644 413.919 236.62 404.347 236.62 394.366V148.945H239L239 102.659Z" fill="#3F3D56"/>
<path d="M200.843 10H182.826C183.655 12.0255 183.971 14.223 183.747 16.399C183.523 18.575 182.766 20.6627 181.543 22.4783C180.319 24.2938 178.666 25.7814 176.73 26.8101C174.794 27.8387 172.634 28.3768 170.441 28.377H91.3704C89.1767 28.3768 87.0166 27.8387 85.0806 26.8101C83.1445 25.7814 81.4919 24.2938 80.2683 22.4783C79.0446 20.6627 78.2875 18.575 78.0637 16.399C77.8398 14.223 78.1561 12.0254 78.9846 10H62.1575C54.6896 10 47.5277 12.958 42.2471 18.2234C36.9666 23.4888 34 30.6302 34 38.0766V393.923C34 401.37 36.9666 408.511 42.2471 413.777C47.5276 419.042 54.6896 422 62.1574 422H200.843C204.54 422 208.202 421.274 211.618 419.863C215.034 418.452 218.138 416.384 220.753 413.777C223.368 411.169 225.442 408.074 226.857 404.668C228.272 401.261 229 397.61 229 393.923V38.0766C229 34.3895 228.272 30.7386 226.857 27.3321C225.442 23.9257 223.368 20.8306 220.753 18.2234C218.138 15.6163 215.034 13.5482 211.618 12.1372C208.202 10.7262 204.54 10 200.843 10Z" fill="white"/>
<path d="M138.525 397C126.256 397.006 114.357 392.794 104.824 385.071C95.2901 377.348 88.7007 366.583 86.1598 354.579C83.619 342.576 85.2811 330.064 90.8676 319.14C96.4541 308.217 105.626 299.545 116.845 294.579C128.064 289.612 140.65 288.653 152.492 291.862C164.334 295.071 174.714 302.253 181.891 312.204C189.068 322.155 192.607 334.27 191.915 346.52C191.222 358.77 186.34 370.409 178.087 379.488L189.259 392.012L183.684 394.377C175.059 398.036 166.619 394.476 161.882 391.635C154.601 395.164 146.616 396.998 138.525 397ZM138.525 298.794C131.702 298.796 124.97 300.358 118.843 303.36C112.716 306.362 107.356 310.725 103.173 316.116C98.9904 321.507 96.0954 327.782 94.7093 334.463C93.3232 341.144 93.4826 348.053 95.1755 354.663C96.8683 361.273 100.05 367.408 104.477 372.6C108.904 377.792 114.459 381.903 120.718 384.62C126.977 387.336 133.774 388.586 140.59 388.273C147.406 387.96 154.06 386.094 160.045 382.816L162.431 381.504L164.65 383.083C167.186 384.928 170.066 386.245 173.119 386.958L166.089 379.077L169.171 376.181C173.647 372.011 177.212 366.96 179.642 361.346C182.072 355.731 183.313 349.675 183.288 343.557C183.275 331.689 178.555 320.311 170.163 311.919C161.771 303.527 150.393 298.807 138.525 298.794Z" fill="#E6E6E6"/>
<path d="M187 343.981C186.996 333.242 183.5 322.801 177.049 314.266C170.599 305.73 161.552 299.571 151.299 296.737C141.047 293.903 130.156 294.55 120.303 298.58C110.45 302.609 102.18 309.797 96.7654 319.038C91.3503 328.279 89.0902 339.061 90.3324 349.727C91.5747 360.392 96.2506 370.35 103.641 378.068C111.031 385.787 120.727 390.839 131.237 392.447C141.746 394.056 152.488 392.131 161.809 386.97C165.163 389.381 173.345 394.19 181.428 390.726L171.698 379.707C176.535 375.128 180.389 369.595 183.021 363.449C185.653 357.303 187.008 350.677 187 343.981Z" fill="white"/>
<path d="M148 334H113V337H148V334Z" fill="#F0A500"/>
<path d="M174 345H113V348H174V345Z" fill="#E6E6E6"/>
<path d="M174 356H113V360H174V356Z" fill="#E6E6E6"/>
<path d="M138.525 160C126.256 160.006 114.357 155.794 104.824 148.071C95.2901 140.348 88.7007 129.583 86.1598 117.579C83.619 105.576 85.2811 93.0639 90.8676 82.1402C96.4541 71.2165 105.626 62.5449 116.845 57.5786C128.064 52.6124 140.65 51.6533 152.492 54.8621C164.334 58.0709 174.714 65.2526 181.891 75.2036C189.068 85.1547 192.607 97.2703 191.915 109.52C191.222 121.77 186.34 133.409 178.087 142.488L189.259 155.012L183.684 157.377C175.059 161.036 166.619 157.476 161.882 154.635C154.601 158.164 146.616 159.998 138.525 160ZM138.525 61.7936C131.702 61.7957 124.97 63.3575 118.843 66.3598C112.716 69.362 107.356 73.7252 103.173 79.1159C98.9904 84.5066 96.0953 90.7822 94.7092 97.463C93.3231 104.144 93.4825 111.053 95.1754 117.663C96.8682 124.273 100.05 130.408 104.477 135.6C108.904 140.792 114.459 144.903 120.718 147.62C126.977 150.336 133.774 151.586 140.59 151.273C147.406 150.96 154.06 149.094 160.045 145.816L162.431 144.504L164.65 146.083C167.186 147.928 170.066 149.245 173.119 149.958L166.089 142.077L169.171 139.181C173.647 135.011 177.212 129.96 179.642 124.346C182.072 118.731 183.313 112.675 183.288 106.557C183.275 94.689 178.555 83.3111 170.163 74.9193C161.771 66.5275 150.393 61.807 138.525 61.7936Z" fill="#E6E6E6"/>
<path d="M187 106.981C186.996 96.2416 183.5 85.8013 177.049 77.2655C170.599 68.7298 161.552 62.5712 151.299 59.7371C141.047 56.903 130.156 57.5504 120.303 61.5795C110.45 65.6087 102.18 72.7966 96.7654 82.0376C91.3504 91.2787 89.0902 102.061 90.3324 112.727C91.5747 123.392 96.2506 133.35 103.641 141.069C111.032 148.787 120.727 153.839 131.237 155.447C141.746 157.056 152.488 155.131 161.809 149.97C165.163 152.381 173.345 157.19 181.428 153.726L171.698 142.707C176.535 138.128 180.389 132.595 183.021 126.449C185.653 120.303 187.008 113.677 187 106.981Z" fill="white"/>
<path d="M148 97H113V100H148V97Z" fill="#F0A500"/>
<path d="M174 108H113V111H174V108Z" fill="#E6E6E6"/>
<path d="M174 119H113V123H174V119Z" fill="#E6E6E6"/>
<path d="M206.5 165C210.642 165 214 161.418 214 157C214 152.582 210.642 149 206.5 149C202.358 149 199 152.582 199 157C199 161.418 202.358 165 206.5 165Z" fill="#E6E6E6"/>
<path d="M206.5 402C210.642 402 214 398.418 214 394C214 389.582 210.642 386 206.5 386C202.358 386 199 389.582 199 394C199 398.418 202.358 402 206.5 402Z" fill="#E6E6E6"/>
<path d="M35.7487 282.615C30.1111 285.996 20.0669 290.232 9.80273 285.879L3.16777 283.064L16.4637 268.16C5.85369 256.461 -0.0161278 241.228 3.32832e-05 225.435C0.0161944 209.642 5.91719 194.421 16.5512 182.744C27.1851 171.068 41.7888 163.772 57.5118 162.283C73.2347 160.794 88.9485 165.217 101.586 174.69C114.223 184.162 122.877 198.004 125.858 213.513C128.839 229.023 125.934 245.086 117.709 258.569C109.485 272.052 96.5307 281.986 81.3761 286.432C66.2215 290.878 49.954 289.517 35.7487 282.615Z" fill="#F0A500"/>
<path opacity="0.1" d="M117.637 225.5C117.636 210.88 112.13 196.791 102.202 186.006C92.2752 175.221 78.6464 168.523 64 167.23C65.7139 167.081 67.4475 167 69.2003 167C84.7984 167.01 99.7542 173.178 110.78 184.147C121.806 195.117 128 209.991 128 225.5C128 241.009 121.806 255.883 110.78 266.853C99.7542 277.822 84.7984 283.99 69.2003 284C67.4501 284 65.7195 283.918 64.0082 283.769C78.653 282.475 92.2797 275.775 102.205 264.991C112.131 254.207 117.636 240.118 117.637 225.5Z" fill="black"/>
<path d="M72 213H30V217H72V213Z" fill="white"/>
<path d="M103 227H30V231H103V227Z" fill="white"/>
<path d="M103 240H30V244H103V240Z" fill="white"/>
</svg>
